<?xml version="1.0" encoding="UTF-8" standalone="no"?>
<!-- Created with Inkscape (http://www.inkscape.org/) -->

<svg
   version="1.1"
   id="svg16798"
   width="1880"
   height="1520"
   viewBox="0 0 1880 1520"
   sodipodi:docname="DMG-JACK-03.svg"
   inkscape:version="1.2.2 (1:1.2.2+202305151914+b0a8486541)"
   xmlns:inkscape="http://www.inkscape.org/namespaces/inkscape"
   xmlns:sodipodi="http://sodipodi.sourceforge.net/DTD/sodipodi-0.dtd"
   xmlns:xlink="http://www.w3.org/1999/xlink"
   xmlns="http://www.w3.org/2000/svg"
   xmlns:svg="http://www.w3.org/2000/svg">
  <defs
     id="defs16802" />
  <sodipodi:namedview
     id="namedview16800"
     pagecolor="#ffffff"
     bordercolor="#666666"
     borderopacity="1.0"
     inkscape:showpageshadow="2"
     inkscape:pageopacity="0.0"
     inkscape:pagecheckerboard="0"
     inkscape:deskcolor="#d1d1d1"
     showgrid="false"
     inkscape:zoom="0.67553191"
     inkscape:cx="1310.0787"
     inkscape:cy="96.220472"
     inkscape:window-width="2560"
     inkscape:window-height="1295"
     inkscape:window-x="0"
     inkscape:window-y="32"
     inkscape:window-maximized="1"
     inkscape:current-layer="svg16798" />
  <g
     inkscape:groupmode="layer"
     inkscape:label="Background"
     id="g16804"
     sodipodi:insensitive="true">
    <image
       width="1880"
       height="1520"
       preserveAspectRatio="none"
       xlink:href="DMG-JACK-03.jpg"
       id="image16806" />
  </g>
  <g
     id="g3972"
     inkscape:label="Traces"
     style="display:inline;opacity:0.6"
     transform="translate(-5.9504326,10.044748)">
    <path
       id="circle3967"
       style="fill:#00ff00"
       d="m 858.2832,42.833768 c -14.1622,0.03063 -27.66171,6.002387 -37.21093,16.460938 L 168.97266,61.982422 75.998814,144.42773 75.584751,323.89623 383.95508,325.2556 V 105.4043 c 0,0 2.39426,-20.291052 42.69298,-21.088656 44.19847,-0.87479 349.49936,2.216675 349.49936,2.216675 18.78328,12.696316 41.3095,42.948521 41.3095,42.948521 l 0.92993,25.2977 c 0,0 10.7113,25.46687 21.84035,25.15811 11.12907,-0.30875 46.03035,-0.0914 46.03035,-0.0914 0,0 11.34555,-6.69061 14.37802,-19.27289 2.34305,-9.72172 0.54567,-3.48052 0.56951,-36.17785 4.95854,-7.97892 3.61757,-17.18202 3.6359,-26.576171 3.6e-4,-27.910264 -18.64752,-54.983877 -46.55778,-54.984591 z"
       inkscape:label="SW"
       sodipodi:nodetypes="cccccccscccscscccc" />
    <path
       id="circle7113"
       style="fill:#0000ff"
       d="m 975.5244,42.833748 c -27.91026,0 -50.53639,22.624892 -50.53711,50.535153 0.0492,4.276954 0.64116,8.530359 1.76171,12.658209 l -2.33365,119.26024 20.82684,14.96851 H 1048.623 l 31.711,27.41406 c 7.248,19.80852 26.0364,33.03207 47.1289,33.16992 27.911,3.6e-4 50.5375,-22.62609 50.5371,-50.53711 -7e-4,-27.91026 -22.6268,-50.53551 -50.5371,-50.53515 -8.5567,0.0846 -22.7221,-0.0286 -18.5657,-0.0127 l -68.5974,-0.26231 c 0,0 -16.0133,-4.03278 -16.2997,-18.77282 -0.1931,-9.94116 -2.6904,-45.04579 -2.6258,-66.18875 3.0747,-6.63199 4.6739,-13.85207 4.6875,-21.162109 -7e-4,-27.910265 -22.6268,-50.535153 -50.5371,-50.535153 z"
       inkscape:label="GND"
       sodipodi:nodetypes="scccccccccccsccss" />
    <path
       id="path9368"
       style="fill:#0000ff"
       d="m 325.8125,402.59961 -15.52201,7.92187 -1.04957,143.93583 -12.81672,2.67643 3.46808,151.95805 h 44.9107 l 1.44702,-102.76952 4.01172,-6.34961 h 42.39005 l 5.25,9.09179 0.096,100.71289 h 332.87891 v -89.66548 h 49.13938 l -0.051,80.97725 218.70492,-4.25708 c 0,0 20.98392,-21.95503 34.99812,-23.45898 14.0141,-1.50394 52.5859,-0.53907 52.5859,-0.53907 l 52.2695,3.01954 27.127,-9.79883 c 0,0 12.6588,-15.34354 15.0129,-28.41594 2.354,-13.07241 1.3062,-26.85801 1.3504,-35.22591 4e-4,-27.91028 -22.6249,-50.53641 -50.5352,-50.53711 -27.911,-3.5e-4 -50.5375,22.62609 -50.5371,50.53711 0.015,2.17311 0.1704,4.34298 0.4648,6.49609 l -21.3702,13.42418 -63.37522,14.93492 -161.64882,-0.48231 c 0,0 -23.2712,-4.99728 -22.37115,-25.39611 0.90007,-20.39883 -2.98908,-33.61923 -2.98908,-33.61923 l -33.39301,-38.22739 1.98633,-125.03701 c 0,0 -3.39912,-11.21077 -12.98186,-12.18748 -9.58273,-0.9767 -439.45068,0.28111 -439.45068,0.28111 z m 119.12301,121.60537 141.15043,2.17578 v 157.76377 l -141.51998,-1.92383 -0.0211,-154.86533 z"
       inkscape:label="GND_OUT"
       sodipodi:nodetypes="ccccccccccccccccscccccccccccscccscccccccc" />
    <g
       id="g9391"
       inkscape:label="Audio"
       style="display:inline">
      <path
         id="circle9300"
         style="fill:#ffff00"
         d="m 1090.1013,45.375526 c -27.9102,7.47e-4 -50.5355,22.626871 -50.5351,50.537113 0.038,5.580711 1.0003,11.116571 2.8476,16.382811 l -1.0065,52.07306 15.9911,15.26235 h 90.4317 l 71.0332,57.38672 271.5,1.48242 115.7251,-59.34312 -0.118,-120.719503 -14.9856,-11.888448 -129.8051,-0.640062 c 0,0 -11.3078,5.148091 -12.0996,12.199218 -0.7918,7.051126 -4.9543,125.936585 -4.9543,125.936585 0,0 -7.2276,14.94511 -22.8035,14.94511 -15.576,0 -188.3602,0.93243 -188.3602,0.93243 l -86.8566,-69.4245 -9.9495,-13.81945 c 2.9486,-6.5261 4.4764,-13.60434 4.4824,-20.765621 4e-4,-27.911023 -22.6261,-50.53747 -50.5371,-50.537113 z"
         inkscape:label="R_IN"
         sodipodi:nodetypes="ccccccccccccscsccccc" />
      <path
         id="path9399"
         style="fill:#ffff00"
         d="m 1647.588,374.41954 c -12.8737,0.0399 -25.2468,4.99138 -34.5938,13.84375 l -129.9066,46.76706 c -16.7099,2.89077 -34.5099,22.58867 -34.5095,50.49895 7e-4,27.90951 22.6257,50.53446 50.5352,50.53515 8.1777,-0.0421 16.223,-2.06822 23.4453,-5.90429 39.0911,-0.15906 147.2274,-2.17916 152.2596,-2.17916 5.6998,10e-6 21.5119,-16.0653 21.5119,-16.0653 v -67.92389 c 2.4971,-6.03744 1.7588,-12.5018 1.795,-19.03516 3e-4,-27.91102 -22.6261,-50.53747 -50.5371,-50.53711 z"
         inkscape:label="R_FILT"
         sodipodi:nodetypes="ccccccscccc" />
      <path
         id="circle9383"
         d="m 419.35855,106.1268 -0.54091,122.2699 133.01361,-0.20397 c 0,0 20.73144,15.33078 20.18751,27.96309 -0.54394,12.63231 -1.14376,84.87298 -1.14376,84.87298 0,0 4.98221,10.55687 16.46529,16.68752 l 377.93901,-0.56788 101.1007,97.71739 4.5458,72.07948 7.0469,5.67969 h 75.4921 l 58.3438,55.41211 0.709,107.58984 c 0,0 2.5096,12.45624 24.8945,11.44336 22.3848,-1.01288 208.7367,2.70703 208.7367,2.70703 l 35.7481,-29.58789 88.7437,-2.71289 35.6801,29.56598 21.7156,-0.37952 c 5.3245,1.89416 10.9289,2.88182 16.5801,2.92188 27.9103,-6.9e-4 50.5356,-22.62683 50.5352,-50.53711 0,-6.55096 2.5812,-12.74178 0.1035,-18.80613 l 0.3748,-55.90451 c 0,0 -13.9944,-20.26426 -26.3739,-20.86805 -12.3796,-0.60378 -400.3768,-0.45368 -400.3768,-0.45368 l -75.4934,-67.35015 -2.9498,-53.50957 c 0,0 0.7342,-6.39206 -12.436,-6.96349 l -45.19,-0.11001 -126.9291,-111.07243 -365.36918,-2.79883 c 0,0 -18.77261,-7.88101 -19.80469,-27.13086 -1.03209,-19.24984 -0.87204,-188.09363 -0.87204,-188.09363 z"
         inkscape:label="R_OUT"
         style="fill:#ffff00"
         sodipodi:nodetypes="cccscccccccccscccccccccscccccccscc" />
      <path
         id="circle9355"
         style="fill:#ffff00"
         d="m 1212.9745,45.375526 c -27.9102,7.47e-4 -50.5355,22.626871 -50.5351,50.537113 7e-4,27.909471 26.9073,51.981651 54.8168,51.982401 3.7687,-0.0391 9.4212,3.04147 13.0875,2.16805 l 100.7286,25.683 c 7.0558,3.67663 14.88,3.6932 22.8359,3.77463 27.911,3.6e-4 47.2415,-20.68392 47.2412,-48.59494 -0.01,-9.08667 0.8351,-18.00377 -3.8115,-25.8125 l 4.2441,-15.248046 c 0,0 4.8511,-22.140809 -1.4464,-31.77039 -6.2948,-9.629581 -14.6033,-9.371185 -18.9774,-9.306677 -3.9254,0.05789 -125.432,-0.180966 -151.7032,-0.635297 -5.3013,-1.834037 -10.8709,-2.772651 -16.4805,-2.777344 z"
         inkscape:label="L_IN"
         sodipodi:nodetypes="ccccccccccscc" />
      <path
         id="path9393"
         style="opacity:1;fill:#ffff00"
         d="m 1733.1463,234.57547 -265.9698,128.48618 c -35.3699,19.01892 -69.4342,44.33707 -129.8548,70.36033 0,0 -50.659,3.08114 -60.1915,2.64295 -9.5326,-0.43817 -14.1966,13.45265 -14.1966,13.45265 l 0.1758,74.38086 4.7832,7.5957 149.7959,-0.0918 -1.8336,-71.65268 71.5132,-51.86776 c 62.5632,-15.70065 77.5427,-38.26321 147.7985,-58.26253 l 91.1377,1.95044 c 8.9807,15.67714 33.7835,28.14749 51.8507,28.19616 27.911,3.6e-4 50.5375,-22.62609 50.5371,-50.53711 -0.01,-7.18288 -0.9295,-13.50625 -3.8945,-20.04842 l 2.0518,-58.64459 c 0,0 -0.3589,-12.19155 -16.3199,-15.66297 z"
         inkscape:label="L_FILT"
         sodipodi:nodetypes="cccscccccccccccccc" />
      <path
         id="path9376"
         style="fill:#ffff00"
         d="m 1783.6219,42.924427 c 0,0 -20.7128,0.54425 -28.4266,5.091123 l -101.5281,0.578125 c 0,0 -14.3992,2.088829 -14.4843,8.023437 -0.085,5.934608 -2.4308,145.619148 -2.4308,145.619148 l -117.0227,56.75354 -293.7607,1.94514 -69.0374,56.46275 -46.2475,1.2592 -76.5732,-59.74045 -162.00232,-0.0322 -84.01367,-74.83955 0.0176,-52.79649 -20.06596,-13.66921 -127.40925,2.40738 1.17044,180.15959 371.94316,0.6939 123.3959,102.88479 200.3672,1.51367 491.1784,-240.40227 0.023,-50.4532 c 1.6106,-4.96366 2.4428,-10.14685 2.4668,-15.365232 -7e-4,-27.909477 -15.9669,-44.305629 -28.6243,-51.176599 -12.0037,-6.516072 -18.9354,-4.916572 -18.9354,-4.916572 z"
         inkscape:label="L_OUT"
         sodipodi:nodetypes="sccsccccccccccccccccccss" />
    </g>
  </g>
</svg>
