<?xml version="1.0" encoding="UTF-8" standalone="no"?>
<!-- Created with Inkscape (http://www.inkscape.org/) -->

<svg
   version="1.1"
   id="svg3273"
   width="1880"
   height="1520"
   viewBox="0 0 1880 1520"
   sodipodi:docname="DMG-JACK-01.svg"
   inkscape:version="1.2.2 (1:1.2.2+202305151914+b0a8486541)"
   xmlns:inkscape="http://www.inkscape.org/namespaces/inkscape"
   xmlns:sodipodi="http://sodipodi.sourceforge.net/DTD/sodipodi-0.dtd"
   xmlns:xlink="http://www.w3.org/1999/xlink"
   xmlns="http://www.w3.org/2000/svg"
   xmlns:svg="http://www.w3.org/2000/svg">
  <defs
     id="defs3277" />
  <sodipodi:namedview
     id="namedview3275"
     pagecolor="#ffffff"
     bordercolor="#666666"
     borderopacity="1.0"
     inkscape:showpageshadow="2"
     inkscape:pageopacity="0.0"
     inkscape:pagecheckerboard="0"
     inkscape:deskcolor="#d1d1d1"
     showgrid="false"
     inkscape:zoom="0.52009565"
     inkscape:cx="1076.725"
     inkscape:cy="451.83997"
     inkscape:window-width="2560"
     inkscape:window-height="1295"
     inkscape:window-x="0"
     inkscape:window-y="32"
     inkscape:window-maximized="1"
     inkscape:current-layer="svg3273" />
  <g
     inkscape:groupmode="layer"
     inkscape:label="Background"
     id="g3279">
    <image
       width="1880"
       height="1520"
       preserveAspectRatio="none"
       xlink:href="DMG-JACK-01.jpg"
       id="image3281" />
  </g>
  <g
     id="g3972"
     inkscape:label="Traces"
     style="opacity:0.6">
    <path
       id="circle3967"
       style="fill:#00ff00"
       d="M 858.2832 47.28125 A 50.536453 50.536453 0 0 0 821.07227 63.742188 L 168.97266 61.982422 L 81.431641 144.42773 L 81.017578 317.42383 L 383.95508 318.7832 L 383.95508 105.4043 C 383.95508 105.4043 383.10219 83.996364 423.39453 82.923828 C 463.68688 81.851291 754.07812 82.923828 754.07812 82.923828 L 810.24414 120.16992 L 810.24414 230.06445 C 810.24414 230.06445 813.51157 239.18181 824.64062 238.87305 C 835.76969 238.5643 891.52344 238.87305 891.52344 238.87305 C 891.52344 238.87305 895.58862 240.48267 898.62109 227.90039 C 900.96414 218.17867 901.18124 157.09186 901.20508 124.39453 A 50.536453 50.536453 0 0 0 908.81836 97.818359 A 50.536453 50.536453 0 0 0 858.2832 47.28125 z "
       inkscape:label="SW" />
    <path
       id="circle7113"
       style="fill:#0000ff"
       d="M 976.42188 50.029297 A 50.536453 50.536453 0 0 0 925.88477 100.56445 A 50.536453 50.536453 0 0 0 927.64648 113.22266 L 927.64648 228.13477 L 945.24219 240.25586 L 1048.623 240.25586 L 1080.334 267.66992 A 50.536453 50.536453 0 0 0 1127.4629 300.83984 A 50.536453 50.536453 0 0 0 1178 250.30273 A 50.536453 50.536453 0 0 0 1127.4629 199.76758 A 50.536453 50.536453 0 0 0 1103.0645 206.32422 L 1038.6133 206.32422 C 1038.6133 206.32422 1022.6282 195.75371 1022.3418 181.01367 C 1022.1487 171.07251 1022.2072 142.86952 1022.2715 121.72656 A 50.536453 50.536453 0 0 0 1026.959 100.56445 A 50.536453 50.536453 0 0 0 976.42188 50.029297 z "
       inkscape:label="GND" />
    <path
       id="path9368"
       style="fill:#0000ff"
       d="M 325.8125 402.59961 L 313.94531 410.52148 L 312.85352 553.83398 L 301.75586 555.31445 L 301.75586 704.96484 L 344.70703 704.96484 L 346.25 606.32227 L 350.26172 599.97266 L 395.86328 599.97266 L 401.11328 609.06445 L 401.11328 705.65039 L 728.93945 709.77734 L 728.93945 626.83008 L 784.53711 626.83008 L 784.53711 696.83203 L 998.66992 696.83203 C 998.66992 696.83203 1019.6539 674.877 1033.668 673.37305 C 1047.6821 671.86911 1086.2539 672.83398 1086.2539 672.83398 L 1138.5234 675.85352 L 1165.6504 666.05469 C 1165.6504 666.05469 1175.3469 647.91494 1176.0723 637.24414 C 1176.2037 635.31102 1176.0681 633.24537 1175.8398 631.16797 A 50.536453 50.536453 0 0 0 1182.0137 607.22852 A 50.536453 50.536453 0 0 0 1131.4785 556.69141 A 50.536453 50.536453 0 0 0 1080.9414 607.22852 A 50.536453 50.536453 0 0 0 1081.4062 613.72461 L 1063.7812 627.03711 L 993.19336 641.34766 L 827.95703 641.23828 C 827.95703 641.23828 806.68393 628.21719 807.58398 607.81836 C 808.48405 587.41953 807.94336 582.6875 807.94336 582.6875 L 772.90234 546.44727 L 772.96289 417.60547 C 772.96289 417.60547 773.51633 406.59585 763.93359 405.61914 C 754.35086 404.64244 325.8125 402.59961 325.8125 402.59961 z M 442.16602 517.76172 L 586.08594 519.9375 L 586.08594 685.83008 L 442.08984 683.90625 L 441.77539 520.91211 L 442.16602 517.76172 z "
       inkscape:label="GND_OUT" />
    <g
       id="g9391"
       inkscape:label="Audio">
      <path
         id="circle9300"
         style="fill:#ffff00"
         d="M 1094.8789 50.529297 A 50.536453 50.536453 0 0 0 1044.3438 101.06641 A 50.536453 50.536453 0 0 0 1047.1914 117.44922 L 1047.1914 167.1582 L 1057.3984 179.63086 L 1147.8301 179.63086 L 1218.8633 237.01758 L 1490.3633 238.5 L 1603.5957 183.3125 L 1605.5137 64.523438 L 1591.6582 55.027344 L 1461.1797 53.291016 C 1461.1797 53.291016 1449.8719 58.439107 1449.0801 65.490234 C 1448.2883 72.54136 1449.0801 185.55078 1449.0801 185.55078 C 1449.0801 185.55078 1437.1599 207.32227 1421.584 207.32227 C 1406.008 207.32227 1231.0391 204.6582 1231.0391 204.6582 L 1143.1309 133.88672 L 1140.9336 121.83203 A 50.536453 50.536453 0 0 0 1145.416 101.06641 A 50.536453 50.536453 0 0 0 1094.8789 50.529297 z "
         inkscape:label="R_IN" />
      <path
         id="path9399"
         style="fill:#ffff00"
         d="M 1680.6934 380.96875 A 50.536453 50.536453 0 0 0 1646.0996 394.8125 L 1504.1094 435.24219 A 50.536453 50.536453 0 0 0 1499.1133 434.99219 A 50.536453 50.536453 0 0 0 1448.5781 485.5293 A 50.536453 50.536453 0 0 0 1499.1133 536.06445 A 50.536453 50.536453 0 0 0 1522.5586 530.16016 C 1561.6497 530.0011 1711.2315 529.39062 1716.2637 529.39062 C 1721.9635 529.39063 1726.0254 523.51172 1726.0254 523.51172 L 1727.3945 450.54102 A 50.536453 50.536453 0 0 0 1731.2305 431.50586 A 50.536453 50.536453 0 0 0 1680.6934 380.96875 z "
         inkscape:label="R_FILT" />
      <path
         id="circle9383"
         d="M 421.61133 107.11523 L 421.61133 223.97852 L 552.54688 223.97852 C 552.54688 223.97852 573.87791 236.31691 573.33398 248.94922 C 572.79004 261.58153 574.20117 345.55859 574.20117 345.55859 L 585.61133 353.69336 L 965.2793 357.14844 L 1070.9258 456.21289 L 1070.9258 526.94531 L 1077.9727 532.625 L 1153.4648 532.625 L 1211.8086 588.03711 L 1212.5176 695.62695 C 1212.5176 695.62695 1215.0272 708.08319 1237.4121 707.07031 C 1259.7969 706.05743 1441.8457 709.77734 1441.8457 709.77734 L 1477.5938 680.18945 L 1570.6406 677.47656 L 1606.8359 709.77734 L 1664.6152 709.77734 A 50.536453 50.536453 0 0 0 1681.1953 712.69922 A 50.536453 50.536453 0 0 0 1731.7305 662.16211 A 50.536453 50.536453 0 0 0 1727.9766 643.05859 L 1729.7695 588.00781 C 1729.7695 588.00781 1721.9889 571.9866 1709.6094 571.38281 C 1697.2298 570.77903 1264.9004 568.1543 1264.9004 568.1543 L 1187.8477 495.38477 L 1187.4375 442.89258 L 1126.6914 440.79492 L 1005.8809 324.00977 L 640.51172 321.21094 C 640.51172 321.21094 621.73911 313.32993 620.70703 294.08008 C 619.67494 274.83024 620.44531 109.56445 620.44531 109.56445 L 421.61133 107.11523 z "
         inkscape:label="R_OUT"
         style="fill:#ffff00" />
      <path
         id="circle9355"
         style="fill:#ffff00"
         d="M 1217.9453 50.529297 A 50.536453 50.536453 0 0 0 1167.4102 101.06641 A 50.536453 50.536453 0 0 0 1217.9453 151.60156 A 50.536453 50.536453 0 0 0 1229.1328 150.22852 L 1331.0723 175.74609 A 50.536453 50.536453 0 0 0 1353.9082 181.46289 A 50.536453 50.536453 0 0 0 1404.4453 130.92578 A 50.536453 50.536453 0 0 0 1397.3379 105.11328 L 1401.582 89.865234 C 1401.582 89.865234 1407.8795 77.91669 1401.582 68.287109 C 1395.2872 58.657528 1385.5323 55.650336 1381.1582 55.714844 C 1377.2328 55.772737 1260.697 53.760972 1234.4258 53.306641 A 50.536453 50.536453 0 0 0 1217.9453 50.529297 z "
         inkscape:label="L_IN" />
      <path
         id="path9393"
         style="opacity:1;fill:#ffff00"
         d="M 1736.3047 241.53711 L 1458.3984 371.82812 L 1342.9863 442.16602 C 1342.9863 442.16602 1285.927 442.2077 1276.3945 441.76953 C 1266.8619 441.33136 1262.9336 449.51758 1262.9336 449.51758 L 1263.1094 523.89844 L 1267.8926 531.49414 L 1413.0488 530.48633 L 1412.4844 461.6875 L 1472.4941 413.58789 L 1654.7754 357.375 L 1733.5977 359.25977 A 50.536453 50.536453 0 0 0 1777.3125 384.67578 A 50.536453 50.536453 0 0 0 1827.8496 334.13867 A 50.536453 50.536453 0 0 0 1823.3418 313.31445 L 1824.6621 254.54102 L 1813.6152 244.78711 L 1736.3047 241.53711 z "
         inkscape:label="L_FILT" />
      <path
         id="path9376"
         style="fill:#ffff00"
         d="M 1780.6465 48.482422 A 50.536453 50.536453 0 0 0 1755.1953 55.482422 L 1654.8652 56.060547 C 1654.8652 56.060547 1640.466 58.149376 1640.3809 64.083984 C 1640.2959 70.018592 1638.791 209.0625 1638.791 209.0625 L 1518.8652 267.07617 L 1222.793 266.98633 L 1153.6172 324.87891 L 1105.9863 325.29688 L 1035.7207 263.73047 L 780.90039 263.73047 C 780.90039 263.73047 765.11987 255.52224 765.43945 235.65039 C 765.75903 215.77853 764.54687 120.46484 764.54688 120.46484 L 644.57812 119.98633 L 643.64258 297.09766 L 1015.9102 299.19336 L 1137.1465 403.72461 L 1337.5137 405.23828 L 1827.7461 169.11523 L 1828.7148 114.38281 A 50.536453 50.536453 0 0 0 1831.1816 99.017578 A 50.536453 50.536453 0 0 0 1780.6465 48.482422 z "
         inkscape:label="L_OUT" />
    </g>
  </g>
</svg>
