<?xml version="1.0" encoding="UTF-8" standalone="no"?>
<!-- Created with Inkscape (http://www.inkscape.org/) -->

<svg
   version="1.1"
   id="svg11387"
   width="1880"
   height="1520"
   viewBox="0 0 1880 1520"
   sodipodi:docname="DMG-JACK-02.svg"
   inkscape:version="1.2.2 (1:1.2.2+202305151914+b0a8486541)"
   xmlns:inkscape="http://www.inkscape.org/namespaces/inkscape"
   xmlns:sodipodi="http://sodipodi.sourceforge.net/DTD/sodipodi-0.dtd"
   xmlns:xlink="http://www.w3.org/1999/xlink"
   xmlns="http://www.w3.org/2000/svg"
   xmlns:svg="http://www.w3.org/2000/svg">
  <defs
     id="defs11391" />
  <sodipodi:namedview
     id="namedview11389"
     pagecolor="#ffffff"
     bordercolor="#666666"
     borderopacity="1.0"
     inkscape:showpageshadow="2"
     inkscape:pageopacity="0.0"
     inkscape:pagecheckerboard="0"
     inkscape:deskcolor="#d1d1d1"
     showgrid="false"
     inkscape:zoom="0.67553191"
     inkscape:cx="940"
     inkscape:cy="759.40157"
     inkscape:window-width="2560"
     inkscape:window-height="1295"
     inkscape:window-x="0"
     inkscape:window-y="32"
     inkscape:window-maximized="1"
     inkscape:current-layer="svg11387" />
  <g
     inkscape:groupmode="layer"
     inkscape:label="Background"
     id="g11393"
     sodipodi:insensitive="true">
    <image
       width="1880"
       height="1520"
       preserveAspectRatio="none"
       xlink:href="DMG-JACK-02.jpg"
       id="image11395" />
  </g>
  <g
     id="g3972"
     inkscape:label="Traces"
     style="display:inline;opacity:0.6"
     transform="translate(8.9161437,-6.071747)">
    <path
       id="circle3967"
       style="fill:#00ff00"
       d="M 858.2832,47.28125 A 50.536453,50.536453 0 0 0 821.07227,63.742188 L 168.97266,61.982422 81.431641,144.42773 81.017578,317.42383 383.95508,318.7832 V 105.4043 c 0,0 -0.85289,-21.407936 39.43945,-22.480472 40.29235,-1.072537 330.68359,0 330.68359,0 l 56.16602,37.246092 v 109.89453 c 0,0 3.26743,9.11736 14.39648,8.8086 11.12907,-0.30875 66.88282,0 66.88282,0 0,0 4.06518,1.60962 7.09765,-10.97266 2.34305,-9.72172 2.56015,-70.80853 2.58399,-103.50586 A 50.536453,50.536453 0 0 0 908.81836,97.818359 50.536453,50.536453 0 0 0 858.2832,47.28125 Z"
       inkscape:label="SW" />
    <path
       id="circle7113"
       style="fill:#0000ff"
       d="m 976.42188,50.029297 a 50.536453,50.536453 0 0 0 -50.53711,50.535153 50.536453,50.536453 0 0 0 1.76171,12.65821 v 114.91211 l 17.59571,12.12109 H 1048.623 l 31.711,27.41406 a 50.536453,50.536453 0 0 0 47.1289,33.16992 50.536453,50.536453 0 0 0 50.5371,-50.53711 50.536453,50.536453 0 0 0 -50.5371,-50.53515 50.536453,50.536453 0 0 0 -24.3984,6.55664 h -64.4512 c 0,0 -15.9851,-10.57051 -16.2715,-25.31055 -0.1931,-9.94116 -0.1346,-38.14415 -0.07,-59.28711 a 50.536453,50.536453 0 0 0 4.6875,-21.16211 50.536453,50.536453 0 0 0 -50.53712,-50.535153 z"
       inkscape:label="GND" />
    <path
       id="path9368"
       style="fill:#0000ff"
       d="m 325.8125,402.59961 -11.86719,7.92187 -1.09179,143.3125 -11.09766,1.48047 v 149.65039 h 42.95117 l 1.54297,-98.64257 4.01172,-6.34961 h 45.60156 l 5.25,9.09179 v 96.58594 l 327.82617,4.12695 v -82.94726 h 55.59766 v 70.00195 h 214.13281 c 0,0 20.98398,-21.95503 34.99808,-23.45898 14.0141,-1.50394 52.5859,-0.53907 52.5859,-0.53907 l 52.2695,3.01954 27.127,-9.79883 c 0,0 9.6965,-18.13975 10.4219,-28.81055 0.1314,-1.93312 0,-3.99877 -0.2325,-6.07617 a 50.536453,50.536453 0 0 0 6.1739,-23.93945 50.536453,50.536453 0 0 0 -50.5352,-50.53711 50.536453,50.536453 0 0 0 -50.5371,50.53711 50.536453,50.536453 0 0 0 0.4648,6.49609 l -17.625,13.3125 -70.58784,14.31055 -165.23633,-0.10938 c 0,0 -21.2731,-13.02109 -20.37305,-33.41992 0.90007,-20.39883 0.35938,-25.13086 0.35938,-25.13086 l -35.04102,-36.24023 0.0606,-128.8418 c 0,0 0.55344,-11.00962 -9.0293,-11.98633 -9.58273,-0.9767 -438.12109,-3.01953 -438.12109,-3.01953 z m 116.35352,115.16211 143.91992,2.17578 v 165.89258 l -143.9961,-1.92383 -0.31445,-162.99414 z"
       inkscape:label="GND_OUT" />
    <g
       id="g9391"
       inkscape:label="Audio">
      <path
         id="circle9300"
         style="fill:#ffff00"
         d="m 1094.8789,50.529297 a 50.536453,50.536453 0 0 0 -50.5351,50.537113 50.536453,50.536453 0 0 0 2.8476,16.38281 v 49.70898 l 10.207,12.47266 h 90.4317 l 71.0332,57.38672 271.5,1.48242 113.2324,-55.1875 1.918,-118.789062 -13.8555,-9.496094 -130.4785,-1.736328 c 0,0 -11.3078,5.148091 -12.0996,12.199218 -0.7918,7.051126 0,120.060546 0,120.060546 0,0 -11.9202,21.77149 -27.4961,21.77149 -15.576,0 -190.5449,-2.66407 -190.5449,-2.66407 l -87.9082,-70.77148 -2.1973,-12.05469 a 50.536453,50.536453 0 0 0 4.4824,-20.76562 50.536453,50.536453 0 0 0 -50.5371,-50.537113 z"
         inkscape:label="R_IN" />
      <path
         id="path9399"
         style="fill:#ffff00"
         d="m 1680.6934,380.96875 a 50.536453,50.536453 0 0 0 -34.5938,13.84375 l -141.9902,40.42969 a 50.536453,50.536453 0 0 0 -4.9961,-0.25 50.536453,50.536453 0 0 0 -50.5352,50.53711 50.536453,50.536453 0 0 0 50.5352,50.53515 50.536453,50.536453 0 0 0 23.4453,-5.90429 c 39.0911,-0.15906 188.6729,-0.76954 193.7051,-0.76954 5.6998,10e-6 9.7617,-5.8789 9.7617,-5.8789 l 1.3691,-72.9707 a 50.536453,50.536453 0 0 0 3.836,-19.03516 50.536453,50.536453 0 0 0 -50.5371,-50.53711 z"
         inkscape:label="R_FILT" />
      <path
         id="circle9383"
         d="m 421.61133,107.11523 v 116.86329 h 130.93555 c 0,0 21.33103,12.33839 20.7871,24.9707 -0.54394,12.63231 0.86719,96.60937 0.86719,96.60937 l 11.41016,8.13477 379.66797,3.45508 105.6465,99.06445 v 70.73242 l 7.0469,5.67969 h 75.4921 l 58.3438,55.41211 0.709,107.58984 c 0,0 2.5096,12.45624 24.8945,11.44336 22.3848,-1.01288 204.4336,2.70703 204.4336,2.70703 l 35.7481,-29.58789 93.0468,-2.71289 36.1953,32.30078 h 57.7793 a 50.536453,50.536453 0 0 0 16.5801,2.92188 50.536453,50.536453 0 0 0 50.5352,-50.53711 50.536453,50.536453 0 0 0 -3.7539,-19.10352 l 1.7929,-55.05078 c 0,0 -7.7806,-16.02121 -20.1601,-16.625 -12.3796,-0.60378 -444.709,-3.22851 -444.709,-3.22851 l -77.0527,-72.76953 -0.4102,-52.49219 -60.7461,-2.09766 -120.8105,-116.78515 -365.36918,-2.79883 c 0,0 -18.77261,-7.88101 -19.80469,-27.13086 -1.03209,-19.24984 -0.26172,-184.51563 -0.26172,-184.51563 z"
         inkscape:label="R_OUT"
         style="fill:#ffff00" />
      <path
         id="circle9355"
         style="fill:#ffff00"
         d="m 1217.9453,50.529297 a 50.536453,50.536453 0 0 0 -50.5351,50.537113 50.536453,50.536453 0 0 0 50.5351,50.53515 50.536453,50.536453 0 0 0 11.1875,-1.37304 l 101.9395,25.51757 a 50.536453,50.536453 0 0 0 22.8359,5.7168 50.536453,50.536453 0 0 0 50.5371,-50.53711 50.536453,50.536453 0 0 0 -7.1074,-25.8125 l 4.2441,-15.248046 c 0,0 6.2975,-11.948544 0,-21.578125 -6.2948,-9.629581 -16.0497,-12.636773 -20.4238,-12.572265 -3.9254,0.05789 -120.4612,-1.953872 -146.7324,-2.408203 a 50.536453,50.536453 0 0 0 -16.4805,-2.777344 z"
         inkscape:label="L_IN" />
      <path
         id="path9393"
         style="opacity:1;fill:#ffff00"
         d="m 1736.3047,241.53711 -277.9063,130.29101 -115.4121,70.3379 c 0,0 -57.0593,0.0417 -66.5918,-0.39649 -9.5326,-0.43817 -13.4609,7.74805 -13.4609,7.74805 l 0.1758,74.38086 4.7832,7.5957 145.1562,-1.00781 -0.5644,-68.79883 60.0097,-48.09961 182.2813,-56.21289 78.8223,1.88477 a 50.536453,50.536453 0 0 0 43.7148,25.41601 50.536453,50.536453 0 0 0 50.5371,-50.53711 50.536453,50.536453 0 0 0 -4.5078,-20.82422 l 1.3203,-58.77343 -11.0469,-9.75391 z"
         inkscape:label="L_FILT" />
      <path
         id="path9376"
         style="fill:#ffff00"
         d="m 1780.6465,48.482422 a 50.536453,50.536453 0 0 0 -25.4512,7 l -100.3301,0.578125 c 0,0 -14.3992,2.088829 -14.4843,8.023437 -0.085,5.934608 -1.5899,144.978516 -1.5899,144.978516 l -119.9258,58.01367 -296.0722,-0.0898 -69.1758,57.89258 -47.6309,0.41797 -70.2656,-61.56641 H 780.90039 c 0,0 -15.78052,-8.20823 -15.46094,-28.08008 0.31958,-19.87186 -0.89258,-115.18555 -0.89257,-115.18555 l -119.96876,-0.47851 -0.93554,177.11133 372.26762,2.0957 121.2363,104.53125 200.3672,1.51367 490.2324,-236.12305 0.9687,-54.73242 a 50.536453,50.536453 0 0 0 2.4668,-15.365232 50.536453,50.536453 0 0 0 -50.5351,-50.535156 z"
         inkscape:label="L_OUT" />
    </g>
  </g>
</svg>
